<svg width="133" height="133" viewBox="0 0 133 133" fill="none" xmlns="http://www.w3.org/2000/svg">
<g clip-path="url(#clip0_281_21)">
<path fill-rule="evenodd" clip-rule="evenodd" d="M91.5319 0.670631C86.7989 2.40363 82.9389 6.42463 76.1329 16.7186C74.4099 19.3246 70.9039 25.6256 69.5979 28.4636L68.9989 29.7636L63.5829 29.7766C58.5929 29.7876 50.9419 30.5606 49.9899 31.1486C49.7689 31.2856 48.1219 31.6546 46.3309 31.9696C44.5389 32.2846 42.8689 32.7036 42.6199 32.9006C41.4049 33.8606 39.1029 33.8276 37.6249 32.8306C17.6439 19.3396 4.6039 19.0526 6.6609 32.1476C7.1169 35.0556 9.6739 41.9216 10.7629 43.1636C11.1489 43.6036 11.6239 44.4136 11.8189 44.9636C12.1659 45.9416 13.2259 47.7486 15.8869 51.9016C16.8799 53.4496 17.1579 54.2626 17.0059 55.1636C15.5169 63.9556 15.6629 69.2806 17.5569 75.2116C19.5869 81.5706 22.4069 85.9906 26.4489 89.1496C28.3659 90.6466 28.3559 91.4676 26.4009 93.4226C23.5709 96.2526 22.1649 104.071 23.7879 107.954C24.1299 108.773 24.3549 110.1 24.2879 110.903L24.1659 112.364L12.5659 112.369C1.13789 112.374 0.938901 112.388 -0.834099 113.323C-6.2141 116.158 -8.0551 119.109 -10.8421 129.364C-11.2901 131.014 -11.9001 133.174 -12.1981 134.164C-12.4951 135.154 -13.2291 137.854 -13.8291 140.164C-14.4281 142.474 -15.1531 145.084 -15.4391 145.964C-16.6021 149.534 -18.8911 157.482 -19.9891 161.764C-20.4121 163.414 -21.1281 166.204 -21.5801 167.964C-22.0321 169.724 -22.5221 171.972 -22.6691 172.959C-22.8161 173.946 -23.1831 175.453 -23.4851 176.309C-24.5521 179.332 -23.9101 180.974 -22.0281 180.036C-21.3051 179.675 -20.9771 179.089 -20.7571 177.757C-20.3531 175.324 -18.8811 168.774 -18.2411 166.564C-17.9551 165.574 -17.3221 163.234 -16.8361 161.364C-14.9151 153.973 -14.3351 151.909 -13.8011 150.564C-13.4961 149.794 -13.0701 148.444 -12.8551 147.564C-12.6401 146.684 -11.9941 144.344 -11.4181 142.364C-9.7571 136.646 -8.8431 133.33 -8.2741 130.964C-6.8881 125.198 -4.10909 118.164 -3.21709 118.164C-3.04009 118.164 -2.3871 117.748 -1.7651 117.239C0.836901 115.11 2.09691 114.938 14.7269 114.983L26.4009 115.024L27.6839 116.481C38.8669 129.19 51.6709 133.381 61.1659 127.443C61.9359 126.961 62.6629 126.521 62.7829 126.466C63.3429 126.203 65.1329 123.445 65.3759 122.471C65.7699 120.894 67.1269 120.662 74.9659 120.835C83.4429 121.021 83.1619 120.95 84.3659 123.194C85.4649 125.243 89.0379 128.419 90.7049 128.83C91.2889 128.973 92.1919 129.367 92.7139 129.704C95.1329 131.272 103.377 130.357 107.366 128.079C107.806 127.828 108.581 127.405 109.088 127.139C110.964 126.156 114.93 122.058 116.566 119.411C116.786 119.055 117.511 117.954 118.177 116.964C118.843 115.974 119.693 114.494 120.066 113.675C120.948 111.735 119.872 111.851 139.366 111.586C157.169 111.344 157.166 111.345 157.166 109.506C157.166 108.371 148.775 108.237 126.271 109.014C121.623 109.174 121.699 109.302 122.903 103.315C125.571 90.0466 124.617 85.2446 118.415 80.7356C116.451 79.3066 115.371 78.8136 113.716 78.5896C110.909 78.2086 111.036 78.5346 111.578 73.1006C112.563 63.2236 110.996 53.3166 107.256 45.7636C106.168 43.5676 106.166 43.5476 106.1 33.9636C105.919 7.70364 101.28 -2.89637 91.5319 0.670631ZM97.6929 4.66363C99.8239 6.74463 101.747 12.0976 102.352 17.6356C102.564 19.5766 102.935 22.7836 103.176 24.7636C103.418 26.7436 103.559 32.0576 103.49 36.5716C103.369 44.5706 103.389 44.8086 104.266 45.9256C104.761 46.5556 105.166 47.2526 105.166 47.4736C105.166 47.6946 105.5 48.6156 105.908 49.5196C107.673 53.4316 108.282 56.5306 109.045 65.4906C109.173 66.9896 109.037 70.4096 108.744 73.0906C108.154 78.4876 108.573 77.7106 103.938 82.0066C99.9239 85.7296 96.5839 91.3536 97.7169 92.4856C98.5339 93.3026 99.1919 92.7456 101.403 89.3636C107.757 79.6426 115.729 78.5456 120.299 86.7636C122.6 90.9016 120.002 107.696 115.874 115.364C108.615 128.85 91.7769 131.677 86.2669 120.335C85.1699 118.077 85.6939 118.192 75.1909 117.896C64.1959 117.586 64.2279 117.581 63.3869 120.064C60.2389 129.369 45.1219 129.326 35.3029 119.985C31.4109 116.284 29.8069 114.609 29.2459 113.664C28.8869 113.059 28.4599 112.564 28.2979 112.564C28.1349 112.564 27.8789 111.889 27.7289 111.064C27.5789 110.239 27.1019 108.664 26.6679 107.564C25.6709 105.034 25.9179 100.244 27.2039 97.1876C28.7089 93.6106 32.8169 92.4396 38.3649 94.0066C44.5439 95.7516 46.4559 96.4336 49.6999 98.0476C52.4999 99.4406 53.3509 99.7076 53.7999 99.3356C54.6869 98.5986 54.5259 96.9636 53.5659 96.9636C53.1259 96.9636 52.7659 96.8096 52.7659 96.6206C52.7659 96.1306 45.9379 93.0676 44.1039 92.7356C43.2579 92.5826 42.1139 92.2286 41.5609 91.9486C41.0079 91.6696 39.7009 91.3126 38.6559 91.1566C37.6109 90.9996 36.6579 90.7116 36.5369 90.5176C36.4169 90.3226 35.5499 90.1636 34.6109 90.1636C30.4649 90.1636 24.2349 84.1206 21.3599 77.3096C18.4359 70.3826 18.0369 64.2476 19.9669 55.8766C20.3839 54.0666 20.1249 52.9576 18.8419 51.0576C9.5539 37.3046 6.7709 27.4126 11.7299 25.7756C14.2659 24.9386 20.8499 26.6026 26.0319 29.3906C26.6179 29.7056 28.1819 30.5406 29.5079 31.2456C30.8329 31.9506 33.4809 33.5566 35.3909 34.8146C38.7169 37.0046 38.9169 37.0806 40.1149 36.5956C42.0329 35.8206 48.2199 34.2906 51.5659 33.7646C53.2159 33.5046 55.4299 33.1286 56.4859 32.9286C59.6389 32.3296 65.4339 32.4746 66.8119 33.1876C69.6489 34.6546 70.3499 33.7776 77.3789 19.9636C77.7149 19.3036 78.7139 17.7736 79.5999 16.5636C80.4849 15.3536 81.8279 13.4486 82.5829 12.3296C87.9099 4.43863 94.1959 1.24963 97.6929 4.66363Z" fill="white"/>
</g>
<defs>
<clipPath id="clip0_281_21">
<rect width="133" height="133" fill="white"/>
</clipPath>
</defs>
</svg>
