<svg width="182" height="181" viewBox="0 0 182 181" fill="none" xmlns="http://www.w3.org/2000/svg">
<g clip-path="url(#clip0_266_2)">
<path fill-rule="evenodd" clip-rule="evenodd" d="M116.366 1.30698C111.633 3.03998 107.773 7.06098 100.967 17.355C99.244 19.961 95.738 26.262 94.432 29.1L93.833 30.4L88.417 30.413C83.427 30.424 75.776 31.197 74.824 31.785C74.603 31.922 72.956 32.291 71.165 32.606C69.373 32.921 67.703 33.34 67.454 33.537C66.239 34.497 63.937 34.464 62.459 33.467C42.478 19.976 29.438 19.689 31.495 32.784C31.951 35.692 34.508 42.558 35.597 43.8C35.983 44.24 36.458 45.05 36.653 45.6C37 46.578 38.06 48.385 40.721 52.538C41.714 54.086 41.992 54.899 41.84 55.8C40.351 64.592 40.497 69.917 42.391 75.848C44.421 82.207 47.241 86.627 51.283 89.786C53.2 91.283 53.19 92.104 51.235 94.059C48.405 96.889 46.999 104.707 48.622 108.59C48.964 109.409 49.189 110.736 49.122 111.539L49 113L37.4 113.005C25.972 113.01 25.773 113.024 24 113.959C18.62 116.794 16.779 119.745 13.992 130C13.544 131.65 12.934 133.81 12.636 134.8C12.339 135.79 11.605 138.49 11.005 140.8C10.406 143.11 9.68101 145.72 9.39501 146.6C8.23201 150.17 5.94301 158.118 4.84501 162.4C4.42201 164.05 3.70601 166.84 3.25401 168.6C2.80201 170.36 2.31201 172.608 2.16501 173.595C2.01801 174.582 1.65101 176.089 1.34901 176.945C0.282007 179.968 0.924008 181.61 2.80601 180.672C3.52901 180.311 3.85701 179.725 4.07701 178.393C4.48101 175.96 5.95301 169.41 6.59301 167.2C6.87901 166.21 7.51201 163.87 7.99801 162C9.91901 154.609 10.499 152.545 11.033 151.2C11.338 150.43 11.764 149.08 11.979 148.2C12.194 147.32 12.84 144.98 13.416 143C15.077 137.282 15.991 133.966 16.56 131.6C17.946 125.834 20.725 118.8 21.617 118.8C21.794 118.8 22.447 118.384 23.069 117.875C25.671 115.746 26.931 115.574 39.561 115.619L51.235 115.66L52.518 117.117C63.701 129.826 76.505 134.017 86 128.079C86.77 127.597 87.497 127.157 87.617 127.102C88.177 126.839 89.967 124.081 90.21 123.107C90.604 121.53 91.961 121.298 99.8 121.471C108.277 121.657 107.996 121.586 109.2 123.83C110.299 125.879 113.872 129.055 115.539 129.466C116.123 129.609 117.026 130.003 117.548 130.34C119.967 131.908 128.211 130.993 132.2 128.715C132.64 128.464 133.415 128.041 133.922 127.775C135.798 126.792 139.764 122.694 141.4 120.047C141.62 119.691 142.345 118.59 143.011 117.6C143.677 116.61 144.527 115.13 144.9 114.311C145.782 112.371 144.706 112.487 164.2 112.222C182.003 111.98 182 111.981 182 110.142C182 109.007 173.609 108.873 151.105 109.65C146.457 109.81 146.533 109.938 147.737 103.951C150.405 90.683 149.451 85.881 143.249 81.372C141.285 79.943 140.205 79.45 138.55 79.226C135.743 78.845 135.87 79.171 136.412 73.737C137.397 63.86 135.83 53.953 132.09 46.4C131.002 44.204 131 44.184 130.934 34.6C130.753 8.33999 126.114 -2.26002 116.366 1.30698ZM122.527 5.29999C124.658 7.38099 126.581 12.734 127.186 18.272C127.398 20.213 127.769 23.42 128.01 25.4C128.252 27.38 128.393 32.694 128.324 37.208C128.203 45.207 128.223 45.445 129.1 46.562C129.595 47.192 130 47.889 130 48.11C130 48.331 130.334 49.252 130.742 50.156C132.507 54.068 133.116 57.167 133.879 66.127C134.007 67.626 133.871 71.046 133.578 73.727C132.988 79.124 133.407 78.347 128.772 82.643C124.758 86.366 121.418 91.99 122.551 93.122C123.368 93.939 124.026 93.382 126.237 90C132.591 80.279 140.563 79.182 145.133 87.4C147.434 91.538 144.836 108.332 140.708 116C133.449 129.486 116.611 132.313 111.101 120.971C110.004 118.713 110.528 118.828 100.025 118.532C89.03 118.222 89.062 118.217 88.221 120.7C85.073 130.005 69.956 129.962 60.137 120.621C56.245 116.92 54.641 115.245 54.08 114.3C53.721 113.695 53.294 113.2 53.132 113.2C52.969 113.2 52.713 112.525 52.563 111.7C52.413 110.875 51.936 109.3 51.502 108.2C50.505 105.67 50.752 100.88 52.038 97.824C53.543 94.247 57.651 93.076 63.199 94.643C69.378 96.388 71.29 97.07 74.534 98.684C77.334 100.077 78.185 100.344 78.634 99.972C79.521 99.235 79.36 97.6 78.4 97.6C77.96 97.6 77.6 97.446 77.6 97.257C77.6 96.767 70.772 93.704 68.938 93.372C68.092 93.219 66.948 92.865 66.395 92.585C65.842 92.306 64.535 91.949 63.49 91.793C62.445 91.636 61.492 91.348 61.371 91.154C61.251 90.959 60.384 90.8 59.445 90.8C55.299 90.8 49.069 84.757 46.194 77.946C43.27 71.019 42.871 64.884 44.801 56.513C45.218 54.703 44.959 53.594 43.676 51.694C34.388 37.941 31.605 28.049 36.564 26.412C39.1 25.575 45.684 27.239 50.866 30.027C51.452 30.342 53.016 31.177 54.342 31.882C55.667 32.587 58.315 34.193 60.225 35.451C63.551 37.641 63.751 37.717 64.949 37.232C66.867 36.457 73.054 34.927 76.4 34.401C78.05 34.141 80.264 33.765 81.32 33.565C84.473 32.966 90.268 33.111 91.646 33.824C94.483 35.291 95.184 34.414 102.213 20.6C102.549 19.94 103.548 18.41 104.434 17.2C105.319 15.99 106.662 14.085 107.417 12.966C112.744 5.07499 119.03 1.88599 122.527 5.29999ZM98.942 65.147C94.579 68.663 93.086 70.394 93.275 71.718C93.456 72.996 95.002 72.653 96.438 71.018C97.075 70.293 99.037 68.564 100.798 67.177C104.064 64.605 104.694 63.474 103.442 62.434C102.995 62.064 102.091 62.609 98.942 65.147ZM66.5 71.865C64.915 72.504 66.12 73.995 69.151 75.146C71.266 75.948 73.788 77.451 75.438 78.891C77.127 80.366 78.513 78.171 76.907 76.564C75.918 75.575 72.381 73.367 71.2 73.002C70.65 72.832 69.845 72.446 69.411 72.146C68.622 71.6 67.44 71.486 66.5 71.865ZM82.909 82.211C81.116 84.004 81.252 85.284 83.597 88.702C85.916 92.082 85.21 93.552 80.448 95.26C80.234 95.337 79.936 95.895 79.786 96.5C79.42 97.977 80.808 97.998 83.844 96.562L86.038 95.524L89.546 96.233C91.475 96.623 93.37 96.82 93.756 96.672C95.526 95.993 93.274 94.029 90.001 93.397C87.339 92.883 87.269 90.97 89.8 87.864C93.265 83.61 92.242 80.8 87.229 80.8C84.434 80.8 84.265 80.855 82.909 82.211ZM88.171 83.829C89.136 84.794 88.262 86.235 86.288 86.933C84.59 87.533 84.398 84.296 86.091 83.616C87.355 83.108 87.462 83.119 88.171 83.829ZM84.95 98.825C81.878 99.739 82.361 101.419 85.681 101.37C87.744 101.339 89.452 100.169 89.082 99.039C88.896 98.471 86.551 98.349 84.95 98.825Z" fill="white"/>
</g>
<defs>
<clipPath id="clip0_266_2">
<rect width="182" height="181" fill="white"/>
</clipPath>
</defs>
</svg>
